<?xml version="1.0" encoding="UTF-8"?>
<svg width="54px" height="18px" viewBox="0 0 54 18" version="1.1" xmlns="http://www.w3.org/2000/svg" xmlns:xlink="http://www.w3.org/1999/xlink">
    <!-- Generator: Sketch 42 (36781) - http://www.bohemiancoding.com/sketch -->
    <title>brand-ETM</title>
    <desc>Created with Sketch.</desc>
    <defs></defs>
    <g id="Web" stroke="none" stroke-width="1" fill="none" fill-rule="evenodd" opacity="0.5">
        <g id="Home" transform="translate(-388.000000, -3584.000000)" fill="#FFFFFF">
            <g id="Brands" transform="translate(388.000000, 3570.000000)">
                <path d="M8.7,30.42 C11.6000145,30.42 13.05,28.7766831 13.05,25.49 L13.63,25.49 L13.63,31 L0,31 L0,30.42 L1.45,30.42 L1.45,15.34 L0,15.34 L0,14.76 L13.34,14.76 L13.34,19.69 L12.76,19.69 C12.76,17.9693247 12.4168368,16.8141696 11.7305,16.2245 C11.0441632,15.6348304 9.93734097,15.34 8.41,15.34 L5.8,15.34 L5.8,22.3 L6.96,22.3 C8.35200696,22.3 9.23166483,22.1260017 9.599,21.778 C9.96633517,21.4299983 10.15,20.7340052 10.15,19.69 L10.73,19.69 L10.73,25.49 L10.15,25.49 C10.15,24.4073279 9.96633517,23.7016683 9.599,23.373 C9.23166483,23.0443317 8.35200696,22.88 6.96,22.88 L5.8,22.88 L5.8,30.42 L8.7,30.42 Z M29.986,19.69 C29.986,17.9693247 29.7008362,16.8141696 29.1305,16.2245 C28.5601638,15.6348304 27.4920078,15.34 25.926,15.34 L25.056,15.34 L25.056,30.42 L27.086,30.42 L27.086,31 L18.676,31 L18.676,30.42 L20.706,30.42 L20.706,15.34 L19.836,15.34 C18.2893256,15.34 17.2308362,15.6348304 16.6605,16.2245 C16.0901638,16.8141696 15.805,17.9693247 15.805,19.69 L15.225,19.69 L15.225,14.76 L30.566,14.76 L30.566,19.69 L29.986,19.69 Z M53.012,15.34 L51.562,15.34 L51.562,30.42 L53.012,30.42 L53.012,31 L45.762,31 L45.762,30.42 L47.212,30.42 L47.212,16.413 L41.47,31.29 L40.803,31.29 L34.365,16.007 L34.365,30.42 L36.685,30.42 L36.685,31 L32.045,31 L32.045,30.42 L33.785,30.42 L33.785,15.34 L32.016,15.34 L32.016,14.76 L38.483,14.76 L43.007,25.635 L47.212,14.76 L53.012,14.76 L53.012,15.34 Z" id="brand-ETM"></path>
            </g>
        </g>
    </g>
</svg>