<?xml version="1.0" encoding="UTF-8"?>
<svg width="108px" height="23px" viewBox="0 0 108 23" version="1.1" xmlns="http://www.w3.org/2000/svg" xmlns:xlink="http://www.w3.org/1999/xlink">
    <!-- Generator: Sketch 42 (36781) - http://www.bohemiancoding.com/sketch -->
    <title>brand-Fransicz</title>
    <desc>Created with Sketch.</desc>
    <defs></defs>
    <g id="Web" stroke="none" stroke-width="1" fill="none" fill-rule="evenodd" opacity="0.5">
        <g id="Home" transform="translate(-1303.000000, -3580.000000)" fill="#FFFFFF">
            <g id="Brands" transform="translate(388.000000, 3570.000000)">
                <path d="M927.892934,13.2325871 L927.892934,14.4912935 L918.324411,14.4912935 L918.324411,21.4427861 L925.233405,21.4427861 L925.233405,22.7014925 L918.324411,22.7014925 L918.324411,32.6853234 L915,32.6853234 L915,13.2325871 L927.892934,13.2325871 Z M929.800857,17.6952736 L932.807281,17.6952736 L932.807281,20.5273632 C933.096361,20.1077923 933.409527,19.7072988 933.746788,19.3258706 C934.084049,18.9444425 934.435758,18.6106979 934.801927,18.3246269 C935.168096,18.0385558 935.543895,17.8097024 935.929336,17.6380597 C936.314777,17.4664171 936.709848,17.380597 937.114561,17.380597 C937.789083,17.380597 938.352781,17.5570049 938.805675,17.9098259 C939.258568,18.2626469 939.485011,18.6869793 939.485011,19.1828358 C939.485011,19.6786924 939.330837,20.0458114 939.022484,20.284204 C938.714131,20.5225965 938.280517,20.641791 937.721627,20.641791 C937.394003,20.641791 937.129016,20.6084166 936.92666,20.5416667 C936.724303,20.4749167 936.541221,20.3986323 936.377409,20.3128109 C936.213597,20.2269896 936.044969,20.1459374 935.87152,20.0696517 C935.698072,19.9933661 935.486083,19.9552239 935.235546,19.9552239 C934.830833,19.9552239 934.430944,20.1793095 934.035867,20.6274876 C933.64079,21.0756656 933.231266,21.6334958 932.807281,22.300995 L932.807281,32.6853234 L929.800857,32.6853234 L929.800857,17.6952736 Z M952.551392,32.6853234 L949.544968,32.6853234 L949.544968,30.6256219 C949.198071,30.8926216 948.851179,31.1691528 948.504283,31.4552239 C948.157386,31.741295 947.781587,31.9987551 947.376874,32.2276119 C946.972161,32.4564688 946.52891,32.6424122 946.047109,32.7854478 C945.565308,32.9284833 945.006427,33 944.37045,33 C943.156311,33 942.202359,32.6471843 941.508565,31.9415423 C940.814772,31.2359003 940.46788,30.3395577 940.46788,29.2524876 C940.46788,28.2798459 940.752138,27.45502 941.320664,26.7779851 C941.889189,26.1009502 942.61188,25.5240488 943.488758,25.0472637 C944.365636,24.5704785 945.33886,24.169985 946.408458,23.8457711 C947.478057,23.5215573 948.523549,23.2354905 949.544968,22.9875622 L949.544968,22.0435323 C949.544968,20.6703911 949.284799,19.7168352 948.764454,19.1828358 C948.244109,18.6488365 947.521418,18.3818408 946.59636,18.3818408 C946.095287,18.3818408 945.685762,18.4485897 945.367773,18.5820896 C945.049784,18.7155894 944.799251,18.8872295 944.616167,19.0970149 C944.433083,19.3068004 944.307816,19.5451894 944.240364,19.8121891 C944.172912,20.0791887 944.139186,20.35572 944.139186,20.641791 C944.139186,21.1757904 944.03801,21.6430328 943.835653,22.0435323 C943.633297,22.4440319 943.233408,22.6442786 942.635974,22.6442786 C942.173445,22.6442786 941.792828,22.4774063 941.494111,22.1436567 C941.195395,21.8099071 941.046039,21.3855747 941.046039,20.8706468 C941.046039,20.3747902 941.209848,19.9170834 941.537473,19.4975124 C941.865098,19.0779415 942.308348,18.7108225 942.867238,18.3961443 C943.426127,18.0814661 944.076549,17.8335415 944.818522,17.6523632 C945.560496,17.4711848 946.34582,17.380597 947.174518,17.380597 C948.157392,17.380597 948.990896,17.4759526 949.675054,17.6666667 C950.359211,17.8573807 950.913274,18.1243764 951.337259,18.4676617 C951.761244,18.810947 952.069592,19.2305116 952.262313,19.7263682 C952.455033,20.2222247 952.551392,20.7657516 952.551392,21.3569652 L952.551392,32.6853234 Z M949.544968,23.931592 C948.889718,24.1413775 948.205571,24.3940698 947.492505,24.6896766 C946.77944,24.9852834 946.1242,25.3285636 945.526767,25.7195274 C944.929333,26.1104912 944.437903,26.5348236 944.052463,26.9925373 C943.667022,27.450251 943.474304,27.9461001 943.474304,28.4800995 C943.474304,28.8424562 943.541755,29.1905041 943.67666,29.5242537 C943.811564,29.8580033 943.994646,30.1488379 944.22591,30.3967662 C944.457175,30.6446944 944.717343,30.8401734 945.006424,30.983209 C945.295505,31.1262445 945.603853,31.1977612 945.931478,31.1977612 C946.605999,31.1977612 947.222695,31.0308889 947.781585,30.6971393 C948.340474,30.3633897 948.928262,29.9771995 949.544968,29.5385572 L949.544968,23.931592 Z M956.569593,17.6952736 L959.576017,17.6952736 L959.576017,20.4129353 C960.501075,19.3830794 961.455027,18.6202347 962.437901,18.1243781 C963.420776,17.6285216 964.422907,17.380597 965.444325,17.380597 C965.964671,17.380597 966.4561,17.4997915 966.91863,17.7381841 C967.381159,17.9765766 967.785866,18.3007857 968.132762,18.7108209 C968.479659,19.1208561 968.754282,19.6024019 968.956638,20.1554726 C969.158995,20.7085434 969.260171,21.2997481 969.260171,21.9291045 L969.260171,32.6853234 L966.253747,32.6853234 L966.253747,22.4154229 C966.253747,21.4237098 966.027304,20.6751684 965.574411,20.1697761 C965.121518,19.6643839 964.538547,19.4116915 963.825482,19.4116915 C963.208776,19.4116915 962.514993,19.6071705 961.744111,19.9981343 C960.97323,20.3890981 960.250539,20.9087861 959.576017,21.5572139 L959.576017,32.6853234 L956.569593,32.6853234 L956.569593,17.6952736 Z M977.585653,31.9701493 C978.414351,31.9701493 979.09368,31.7412958 979.623662,31.2835821 C980.153643,30.8258684 980.41863,30.3109481 980.41863,29.738806 C980.41863,29.128521 980.216276,28.6231363 979.811563,28.2226368 C979.40685,27.8221373 978.905785,27.459786 978.308351,27.1355721 C977.710918,26.8113582 977.060496,26.4966848 976.357066,26.1915423 C975.653637,25.8863998 975.003215,25.5335841 974.405782,25.1330846 C973.808348,24.7325851 973.307283,24.2510393 972.90257,23.6884328 C972.497857,23.1258264 972.295503,22.4154272 972.295503,21.5572139 C972.295503,20.9660004 972.425588,20.4129379 972.68576,19.89801 C972.945933,19.383082 973.30246,18.9396785 973.755353,18.5677861 C974.208246,18.1958937 974.752673,17.9050591 975.388651,17.6952736 C976.024628,17.4854882 976.718412,17.380597 977.470021,17.380597 C977.971095,17.380597 978.438435,17.4139715 978.872056,17.4807214 C979.305677,17.5474713 979.734473,17.6809691 980.158458,17.8812189 C980.582443,18.0814687 981.001604,18.3627677 981.415953,18.7251244 C981.830302,19.0874811 982.268734,19.5642591 982.731263,20.1554726 L981.632762,21.1281095 C981.073873,20.212682 980.437905,19.5261217 979.724839,19.068408 C979.011774,18.6106942 978.250539,18.3818408 977.441113,18.3818408 C976.573871,18.3818408 975.87527,18.572552 975.345289,18.9539801 C974.815308,19.3354082 974.550321,19.8026506 974.550321,20.3557214 C974.550321,20.9660064 974.767128,21.471391 975.200749,21.8718905 C975.63437,22.2723901 976.178798,22.6299736 976.834047,22.9446517 C977.489297,23.2593299 978.197534,23.5692356 978.958779,23.8743781 C979.720025,24.1795206 980.428262,24.5323363 981.083512,24.9328358 C981.738761,25.3333353 982.283188,25.8148811 982.716809,26.3774876 C983.15043,26.940094 983.367238,27.6409577 983.367238,28.4800995 C983.367238,29.1094559 983.246789,29.7006606 983.005889,30.2537313 C982.764988,30.8068021 982.403643,31.2883479 981.921842,31.6983831 C981.44004,32.1084183 980.837798,32.4278596 980.115096,32.6567164 C979.392395,32.8855733 978.549255,33 977.585653,33 C977.142396,33 976.684692,32.9666255 976.212527,32.8998756 C975.740362,32.8331257 975.268204,32.6996279 974.796039,32.4993781 C974.323873,32.2991284 973.851715,32.0178293 973.37955,31.6554726 C972.907385,31.2931159 972.440045,30.8163379 971.977516,30.2251244 L973.220557,29.1094527 C973.952894,30.1393086 974.646678,30.8735467 975.301927,31.3121891 C975.957177,31.7508314 976.718411,31.9701493 977.585653,31.9701493 Z M988.021413,10 C988.483942,10 988.888649,10.1478012 989.235546,10.443408 C989.582443,10.7390147 989.755889,11.0870627 989.755889,11.4875622 C989.755889,11.9071331 989.582443,12.2647166 989.235546,12.5603234 C988.888649,12.8559302 988.483942,13.0037313 988.021413,13.0037313 C987.539612,13.0037313 987.130087,12.8559302 986.792827,12.5603234 C986.455566,12.2647166 986.286938,11.9071331 986.286938,11.4875622 C986.286938,11.0870627 986.455566,10.7390147 986.792827,10.443408 C987.130087,10.1478012 987.539612,10 988.021413,10 Z M986.547109,18.238806 L988.657388,17.380597 L989.524625,17.380597 L989.524625,32.6853234 L986.547109,32.6853234 L986.547109,18.238806 Z M999.642398,33 C998.640252,33 997.705572,32.8092888 996.83833,32.4278607 C995.971088,32.0464326 995.214671,31.517209 994.569058,30.8401741 C993.923444,30.1631392 993.417561,29.3764556 993.051392,28.4800995 C992.685223,27.5837434 992.502141,26.6206519 992.502141,25.590796 C992.502141,24.4465117 992.709313,23.378529 993.123662,22.3868159 C993.538011,21.3951028 994.096892,20.5273669 994.800321,19.7835821 C995.503751,19.0397973 996.332436,18.4533604 997.286403,18.0242537 C998.240369,17.5951471 999.26659,17.380597 1000.3651,17.380597 C1001.21307,17.380597 1001.99357,17.4711848 1002.70664,17.6523632 C1003.4197,17.8335415 1004.0364,18.0862339 1004.55675,18.4104478 C1005.07709,18.7346617 1005.4818,19.1113163 1005.77088,19.5404229 C1006.05996,19.9695295 1006.2045,20.4415397 1006.2045,20.9564677 C1006.2045,21.1853245 1006.14668,21.3998746 1006.03105,21.6001244 C1005.91542,21.8003741 1005.76124,21.9720142 1005.56852,22.1150498 C1005.3758,22.2580853 1005.15899,22.372512 1004.91809,22.4583333 C1004.67719,22.5441547 1004.43148,22.5870647 1004.18094,22.5870647 C1003.64132,22.5870647 1003.21253,22.4154246 1002.89454,22.0721393 C1002.57655,21.728854 1002.41756,21.3569672 1002.41756,20.9564677 C1002.41756,20.2508257 1002.24893,19.6643887 1001.91167,19.1971393 C1001.57441,18.7298899 1000.89508,18.4962687 999.873662,18.4962687 C999.179868,18.4962687 998.563172,18.6297665 998.023555,18.8967662 C997.483937,19.1637658 997.026233,19.5356527 996.650428,20.0124378 C996.274623,20.4892229 995.990365,21.0422854 995.797645,21.6716418 C995.604924,22.3009982 995.508565,22.9684874 995.508565,23.6741294 C995.508565,24.6276996 995.633832,25.5335778 995.884368,26.391791 C996.134905,27.2500043 996.491432,27.9985457 996.953961,28.6374378 C997.416491,29.2763299 997.970554,29.7864823 998.616167,30.1679104 C999.261781,30.5493386 999.989289,30.7400498 1000.79872,30.7400498 C1001.49251,30.7400498 1002.09957,30.6303908 1002.61991,30.4110697 C1003.14026,30.1917485 1003.58833,29.8961461 1003.96413,29.5242537 C1004.33994,29.1523613 1004.66756,28.7184934 1004.947,28.2226368 C1005.22645,27.7267803 1005.47216,27.2023245 1005.68415,26.6492537 L1006.5803,27.0211443 C1006.07923,28.9282848 1005.23609,30.4015288 1004.05086,31.4409204 C1002.86563,32.480312 1001.39615,33 999.642398,33 Z M1007.79443,31.9129353 L1018.72163,18.9539801 L1007.79443,18.9539801 L1007.79443,17.6952736 L1023,17.6952736 L1023,18.3246269 L1011.84154,31.4266169 L1023,31.4266169 L1023,32.6853234 L1007.79443,32.6853234 L1007.79443,31.9129353 Z" id="brand-Fransicz"></path>
            </g>
        </g>
    </g>
</svg>