<?xml version="1.0" encoding="UTF-8"?>
<svg width="92px" height="27px" viewBox="0 0 92 27" version="1.1" xmlns="http://www.w3.org/2000/svg" xmlns:xlink="http://www.w3.org/1999/xlink">
    <!-- Generator: Sketch 42 (36781) - http://www.bohemiancoding.com/sketch -->
    <title>brand-DeBuzzy</title>
    <desc>Created with Sketch.</desc>
    <defs></defs>
    <g id="Web" stroke="none" stroke-width="1" fill="none" fill-rule="evenodd" opacity="0.5">
        <g id="Home" transform="translate(-576.000000, -3581.000000)" fill="#FFFFFF">
            <g id="Brands" transform="translate(388.000000, 3570.000000)">
                <path d="M200.373266,27.015625 C200.373266,27.704756 200.243466,28.3513967 199.983862,28.9555664 C199.724258,29.5597361 199.367898,30.0883766 198.91477,30.5415039 C198.461643,30.9946312 197.930643,31.3509915 197.321753,31.6105957 C196.712863,31.8701999 196.063862,32 195.374731,32 L188.94602,32 L188.94602,11.6943359 L195.374731,11.6943359 C196.063862,11.6943359 196.712863,11.8241361 197.321753,12.0837402 C197.930643,12.3433444 198.461643,12.6997048 198.91477,13.152832 C199.367898,13.6059593 199.724258,14.1369598 199.983862,14.7458496 C200.243466,15.3547394 200.373266,16.00374 200.373266,16.6928711 L200.373266,27.015625 Z M198.546606,16.6928711 C198.546606,16.2397438 198.461646,15.8173034 198.291724,15.4255371 C198.121801,15.0337708 197.888161,14.6892105 197.590796,14.3918457 C197.293431,14.0944809 196.948871,13.8608407 196.557104,13.690918 C196.165338,13.5209952 195.742898,13.4360352 195.28977,13.4360352 L190.772681,13.4360352 L190.772681,30.2583008 L195.28977,30.2583008 C195.742898,30.2583008 196.165338,30.1733407 196.557104,30.003418 C196.948871,29.8334952 197.293431,29.602215 197.590796,29.3095703 C197.888161,29.0169256 198.121801,28.6747253 198.291724,28.282959 C198.461646,27.8911927 198.546606,27.4687523 198.546606,27.015625 L198.546606,16.6928711 Z M213.825415,28.0209961 C213.825415,28.6062855 213.714495,29.158526 213.492651,29.6777344 C213.270808,30.1969427 212.966367,30.6500632 212.579321,31.0371094 C212.192275,31.4241556 211.739154,31.7285959 211.219946,31.9504395 C210.700738,32.172283 210.148497,32.2832031 209.563208,32.2832031 L208.402075,32.2832031 C207.816786,32.2832031 207.264545,32.172283 206.745337,31.9504395 C206.226128,31.7285959 205.773008,31.4241556 205.385962,31.0371094 C204.998916,30.6500632 204.694475,30.1969427 204.472632,29.6777344 C204.250788,29.158526 204.139868,28.6062855 204.139868,28.0209961 L204.139868,21.4790039 C204.139868,20.8937145 204.250788,20.341474 204.472632,19.8222656 C204.694475,19.3030573 204.998916,18.8499368 205.385962,18.4628906 C205.773008,18.0758444 206.226128,17.7714041 206.745337,17.5495605 C207.264545,17.327717 207.816786,17.2167969 208.402075,17.2167969 L209.563208,17.2167969 C210.148497,17.2167969 210.700738,17.327717 211.219946,17.5495605 C211.739154,17.7714041 212.192275,18.0758444 212.579321,18.4628906 C212.966367,18.8499368 213.270808,19.3030573 213.492651,19.8222656 C213.714495,20.341474 213.825415,20.8937145 213.825415,21.4790039 L213.825415,24.8916016 L205.881567,24.8916016 L205.881567,28.1201172 C205.881567,28.4694028 205.947647,28.7974431 206.079809,29.104248 C206.211972,29.411053 206.391332,29.6777332 206.617895,29.9042969 C206.844459,30.1308605 207.111139,30.3102207 207.417944,30.4423828 C207.724749,30.5745449 208.052789,30.640625 208.402075,30.640625 L209.563208,30.640625 C209.912493,30.640625 210.240534,30.5745449 210.547339,30.4423828 C210.854144,30.3102207 211.120824,30.1308605 211.347388,29.9042969 C211.573951,29.6777332 211.753311,29.411053 211.885474,29.104248 C212.017636,28.7974431 212.083716,28.4694028 212.083716,28.1201172 L212.083716,27.1572266 L213.825415,27.4404297 L213.825415,28.0209961 Z M212.083716,21.3798828 C212.083716,21.0305972 212.017636,20.7025569 211.885474,20.395752 C211.753311,20.088947 211.573951,19.8222668 211.347388,19.5957031 C211.120824,19.3691395 210.854144,19.1897793 210.547339,19.0576172 C210.240534,18.9254551 209.912493,18.859375 209.563208,18.859375 L208.402075,18.859375 C208.052789,18.859375 207.724749,18.9254551 207.417944,19.0576172 C207.111139,19.1897793 206.844459,19.3691395 206.617895,19.5957031 C206.391332,19.8222668 206.211972,20.088947 206.079809,20.395752 C205.947647,20.7025569 205.881567,21.0305972 205.881567,21.3798828 L205.881567,23.5322266 L212.083716,23.5322266 L212.083716,21.3798828 Z M229.316626,27.015625 C229.316626,27.704756 229.186826,28.3513967 228.927222,28.9555664 C228.667617,29.5597361 228.311257,30.0883766 227.85813,30.5415039 C227.405002,30.9946312 226.874002,31.3509915 226.265112,31.6105957 C225.656222,31.8701999 225.007222,32 224.318091,32 L217.88938,32 L217.88938,11.6943359 L224.318091,11.6943359 C225.007222,11.6943359 225.656222,11.8241361 226.265112,12.0837402 C226.874002,12.3433444 227.405002,12.6997048 227.85813,13.152832 C228.311257,13.6059593 228.667617,14.1369598 228.927222,14.7458496 C229.186826,15.3547394 229.316626,16.00374 229.316626,16.6928711 L229.316626,16.8911133 C229.316626,17.372561 229.252906,17.8327615 229.125464,18.2717285 C228.998022,18.7106956 228.816302,19.118976 228.580298,19.496582 C228.344294,19.8741881 228.065814,20.2163884 227.744849,20.5231934 C227.423883,20.8299983 227.065163,21.0872385 226.668677,21.2949219 C227.065163,21.5026052 227.423883,21.7598455 227.744849,22.0666504 C228.065814,22.3734553 228.344294,22.7180157 228.580298,23.1003418 C228.816302,23.4826679 228.998022,23.8933084 229.125464,24.3322754 C229.252906,24.7712424 229.316626,25.2314429 229.316626,25.7128906 L229.316626,27.015625 Z M227.489966,25.4155273 C227.489966,24.9624001 227.405006,24.5399596 227.235083,24.1481934 C227.06516,23.7564271 226.83152,23.4142267 226.534155,23.121582 C226.23679,22.8289373 225.89223,22.5976571 225.500464,22.4277344 C225.108697,22.2578117 224.686257,22.1728516 224.23313,22.1728516 L219.71604,22.1728516 L219.71604,30.2583008 L224.23313,30.2583008 C224.686257,30.2583008 225.108697,30.1733407 225.500464,30.003418 C225.89223,29.8334952 226.23679,29.602215 226.534155,29.3095703 C226.83152,29.0169256 227.06516,28.6747253 227.235083,28.282959 C227.405006,27.8911927 227.489966,27.4687523 227.489966,27.015625 L227.489966,25.4155273 Z M227.489966,16.6928711 C227.489966,16.2397438 227.405006,15.8173034 227.235083,15.4255371 C227.06516,15.0337708 226.83152,14.6892105 226.534155,14.3918457 C226.23679,14.0944809 225.89223,13.8608407 225.500464,13.690918 C225.108697,13.5209952 224.686257,13.4360352 224.23313,13.4360352 L219.71604,13.4360352 L219.71604,20.4311523 L224.23313,20.4311523 C224.686257,20.4311523 225.108697,20.3461923 225.500464,20.1762695 C225.89223,20.0063468 226.23679,19.7727066 226.534155,19.4753418 C226.83152,19.177977 227.06516,18.8334167 227.235083,18.4416504 C227.405006,18.0498841 227.489966,17.6274437 227.489966,17.1743164 L227.489966,16.6928711 Z M241.324438,32 L240.361548,30.5273438 C239.965061,31.0654324 239.469461,31.4925928 238.874731,31.8088379 C238.280002,32.125083 237.628641,32.2832031 236.92063,32.2832031 L236.481665,32.2832031 C235.896376,32.2832031 235.344135,32.172283 234.824927,31.9504395 C234.305718,31.7285959 233.852598,31.4241556 233.465552,31.0371094 C233.078505,30.6500632 232.774065,30.1969427 232.552222,29.6777344 C232.330378,29.158526 232.219458,28.6062855 232.219458,28.0209961 L232.219458,17.5 L233.961157,17.5 L233.961157,28.1201172 C233.961157,28.4694028 234.027237,28.7974431 234.159399,29.104248 C234.291561,29.411053 234.470922,29.6777332 234.697485,29.9042969 C234.924049,30.1308605 235.190729,30.3102207 235.497534,30.4423828 C235.804339,30.5745449 236.132379,30.640625 236.481665,30.640625 L237.642798,30.640625 C237.992083,30.640625 238.320124,30.5745449 238.626929,30.4423828 C238.933734,30.3102207 239.200414,30.1308605 239.426977,29.9042969 C239.653541,29.6777332 239.832901,29.411053 239.965063,29.104248 C240.097225,28.7974431 240.163306,28.4694028 240.163306,28.1201172 L240.163306,17.5 L241.905005,17.5 L241.905005,32 L241.324438,32 Z M244.807837,32 L244.807837,31.2211914 L252.114477,19.1567383 L245.09104,19.1567383 L245.09104,17.5 L254.493384,17.5 L254.493384,18.2788086 L247.186743,30.3432617 L254.493384,30.3432617 L254.493384,32 L244.807837,32 Z M256.815649,32 L256.815649,31.2211914 L264.12229,19.1567383 L257.098852,19.1567383 L257.098852,17.5 L266.501196,17.5 L266.501196,18.2788086 L259.194556,30.3432617 L266.501196,30.3432617 L266.501196,32 L256.815649,32 Z M271.754614,37.8056641 L270.069556,37.8056641 L272.646704,30.7539062 L267.945532,17.5 L269.687231,17.5 L273.467993,28.4882812 L273.524634,29.2387695 L273.581274,28.4882812 L277.347876,17.5 L279.089575,17.5 L271.754614,37.8056641 Z" id="brand-DeBuzzy"></path>
            </g>
        </g>
    </g>
</svg>