<?xml version="1.0" encoding="UTF-8"?>
<svg width="91px" height="19px" viewBox="0 0 91 19" version="1.1" xmlns="http://www.w3.org/2000/svg" xmlns:xlink="http://www.w3.org/1999/xlink">
    <!-- Generator: Sketch 42 (36781) - http://www.bohemiancoding.com/sketch -->
    <title>brand-Victoria</title>
    <desc>Created with Sketch.</desc>
    <defs></defs>
    <g id="Web" stroke="none" stroke-width="1" fill="none" fill-rule="evenodd" opacity="0.5">
        <g id="Home" transform="translate(-1078.000000, -3583.000000)" fill="#FFFFFF">
            <g id="Brands" transform="translate(388.000000, 3570.000000)">
                <path d="M690.35798,13.23 L695.86798,13.23 L695.86798,13.752 L694.41798,13.752 L699.14498,27.904 L703.98798,13.752 L702.53798,13.752 L702.53798,13.23 L706.48198,13.23 L706.48198,13.752 L705.40898,13.752 C705.138312,13.752 704.954647,13.887332 704.85798,14.158 L698.91298,31.5 L697.92698,31.5 L691.98198,14.158 C691.885312,13.887332 691.701648,13.752 691.43098,13.752 L690.35798,13.752 L690.35798,13.23 Z M709.70098,30.572 L709.70098,19.9 C709.70098,19.629332 709.565648,19.494 709.29498,19.494 L707.93198,19.494 L707.93198,18.972 L709.35298,18.972 C710.512985,18.972 711.324977,18.9140006 711.78898,18.798 L711.78898,30.63 C711.78898,30.8620012 711.924312,30.978 712.19498,30.978 L713.55798,30.978 L713.55798,31.5 L707.93198,31.5 L707.93198,30.978 L709.29498,30.978 C709.565648,30.978 709.70098,30.842668 709.70098,30.572 Z M709.38198,14.796 C709.38198,14.4093314 709.512478,14.0855013 709.77348,13.8245 C710.034481,13.5634987 710.358311,13.433 710.74498,13.433 C711.131648,13.433 711.455478,13.5634987 711.71648,13.8245 C711.977481,14.0855013 712.10798,14.4093314 712.10798,14.796 C712.10798,15.1826686 711.977481,15.5064987 711.71648,15.7675 C711.455478,16.0285013 711.131648,16.159 710.74498,16.159 C710.358311,16.159 710.034481,16.0285013 709.77348,15.7675 C709.512478,15.5064987 709.38198,15.1826686 709.38198,14.796 Z M721.50398,19.32 C720.401974,19.32 719.507816,19.8468281 718.82148,20.9005 C718.135143,21.9541719 717.79198,23.3993242 717.79198,25.236 C717.79198,27.0726759 718.125476,28.5178281 718.79248,29.5715 C719.459483,30.6251719 720.319808,31.152 721.37348,31.152 C722.427152,31.152 723.29231,30.881336 723.96898,30.34 C724.64565,29.798664 725.109645,29.0253384 725.36098,28.02 L725.91198,28.136 C725.679978,29.3153392 725.148317,30.2288301 724.31698,30.8765 C723.485642,31.5241699 722.528652,31.848 721.44598,31.848 C719.763971,31.848 718.367152,31.2583392 717.25548,30.079 C716.143807,28.8996608 715.58798,27.2853436 715.58798,25.236 C715.58798,23.1866564 716.148641,21.5723392 717.26998,20.393 C718.391319,19.2136608 719.802638,18.624 721.50398,18.624 C722.818653,18.624 723.804643,18.9188304 724.46198,19.5085 C725.119316,20.0981696 725.44798,20.8859951 725.44798,21.872 C725.44798,23.1480064 725.090317,23.786 724.37498,23.786 C723.794977,23.786 723.330981,23.6313349 722.98298,23.322 C723.253648,22.7419971 723.38898,22.1378365 723.38898,21.5095 C723.38898,20.8811635 723.229481,20.3591687 722.91048,19.9435 C722.591478,19.5278313 722.122649,19.32 721.50398,19.32 Z M730.63898,15.898 L731.07398,15.898 L731.07398,18.972 L733.97398,18.972 L733.97398,19.494 L731.07398,19.494 L731.07398,29.325 C731.07398,30.3690052 731.363977,30.891 731.94398,30.891 C732.214648,30.891 732.451479,30.7653346 732.65448,30.514 C732.857481,30.2626654 732.95898,29.9726683 732.95898,29.644 C732.95898,29.3153317 732.92998,29.0060015 732.87198,28.716 L733.42298,28.629 C733.500313,28.9190015 733.53898,29.2379983 733.53898,29.586 C733.53898,30.2820035 733.331148,30.832998 732.91548,31.239 C732.499811,31.645002 731.95365,31.848 731.27698,31.848 C730.60031,31.848 730.049315,31.5725028 729.62398,31.0215 C729.198644,30.4704972 728.98598,29.6440055 728.98598,28.542 L728.98598,19.9 C728.98598,19.629332 728.850648,19.494 728.57998,19.494 L727.21698,19.494 L727.21698,18.972 L728.63798,18.972 C729.256649,18.972 729.923643,17.9473436 730.63898,15.898 Z M735.71398,25.236 C735.71398,23.1866564 736.255308,21.5723392 737.33798,20.393 C738.420652,19.2136608 739.831971,18.624 741.57198,18.624 C743.311988,18.624 744.728141,19.2136608 745.82048,20.393 C746.912818,21.5723392 747.45898,23.1866564 747.45898,25.236 C747.45898,27.2853436 746.912818,28.8996608 745.82048,30.079 C744.728141,31.2583392 743.311988,31.848 741.57198,31.848 C739.831971,31.848 738.420652,31.2583392 737.33798,30.079 C736.255308,28.8996608 735.71398,27.2853436 735.71398,25.236 Z M737.91798,25.236 C737.91798,27.0726759 738.265976,28.5274946 738.96198,29.6005 C739.657983,30.6735054 740.527974,31.21 741.57198,31.21 C742.615985,31.21 743.490809,30.6735054 744.19648,29.6005 C744.90215,28.5274946 745.25498,27.0726759 745.25498,25.236 C745.25498,23.3993242 744.90215,21.9445054 744.19648,20.8715 C743.490809,19.7984946 742.615985,19.262 741.57198,19.262 C740.527974,19.262 739.657983,19.7984946 738.96198,20.8715 C738.265976,21.9445054 737.91798,23.3993242 737.91798,25.236 Z M759.01548,19.581 C759.489149,20.2190032 759.72598,21.0213285 759.72598,21.988 C759.72598,22.9546715 759.32965,23.438 758.53698,23.438 C758.072977,23.438 757.695981,23.2930015 757.40598,23.003 C757.657314,22.4423305 757.78298,21.8720029 757.78298,21.292 C757.78298,20.2673282 757.357651,19.755 756.50698,19.755 C755.791643,19.755 755.158482,20.3494941 754.60748,21.5385 C754.056477,22.7275059 753.78098,24.4529887 753.78098,26.715 L753.78098,30.572 C753.78098,30.842668 753.916312,30.978 754.18698,30.978 L756.12998,30.978 L756.12998,31.5 L749.92398,31.5 L749.92398,30.978 L751.28698,30.978 C751.557648,30.978 751.69298,30.842668 751.69298,30.572 L751.69298,19.9 C751.69298,19.629332 751.557648,19.494 751.28698,19.494 L749.92398,19.494 L749.92398,18.972 L751.34498,18.972 C752.504985,18.972 753.316977,18.9140006 753.78098,18.798 L753.78098,22.51 C754.090314,21.1759933 754.544643,20.1948365 755.14398,19.5665 C755.743316,18.9381635 756.419976,18.624 757.17398,18.624 C757.927983,18.624 758.541811,18.9429968 759.01548,19.581 Z M762.94498,30.572 L762.94498,19.9 C762.94498,19.629332 762.809648,19.494 762.53898,19.494 L761.17598,19.494 L761.17598,18.972 L762.59698,18.972 C763.756985,18.972 764.568977,18.9140006 765.03298,18.798 L765.03298,30.63 C765.03298,30.8620012 765.168312,30.978 765.43898,30.978 L766.80198,30.978 L766.80198,31.5 L761.17598,31.5 L761.17598,30.978 L762.53898,30.978 C762.809648,30.978 762.94498,30.842668 762.94498,30.572 Z M762.62598,14.796 C762.62598,14.4093314 762.756478,14.0855013 763.01748,13.8245 C763.278481,13.5634987 763.602311,13.433 763.98898,13.433 C764.375648,13.433 764.699478,13.5634987 764.96048,13.8245 C765.221481,14.0855013 765.35198,14.4093314 765.35198,14.796 C765.35198,15.1826686 765.221481,15.5064987 764.96048,15.7675 C764.699478,16.0285013 764.375648,16.159 763.98898,16.159 C763.602311,16.159 763.278481,16.0285013 763.01748,15.7675 C762.756478,15.5064987 762.62598,15.1826686 762.62598,14.796 Z M775.96598,24.743 L775.99498,23.728 L775.99498,22.713 C775.99498,20.4509887 775.26032,19.32 773.79098,19.32 C773.152976,19.32 772.655148,19.5374978 772.29748,19.9725 C771.939811,20.4075022 771.76098,20.9149971 771.76098,21.495 C771.76098,22.0750029 771.838312,22.5776645 771.99298,23.003 C771.664311,23.2930015 771.209983,23.438 770.62998,23.438 C770.049977,23.438 769.75998,22.9643381 769.75998,22.017 C769.75998,21.0696619 770.132143,20.2673366 770.87648,19.61 C771.620817,18.9526634 772.679306,18.624 774.05198,18.624 C776.739326,18.624 778.08298,20.2093175 778.08298,23.38 L778.08298,29.325 C778.08298,30.3690052 778.372977,30.891 778.95298,30.891 C779.223648,30.891 779.460479,30.7653346 779.66348,30.514 C779.866481,30.2626654 779.96798,29.9726683 779.96798,29.644 C779.96798,29.3153317 779.93898,29.0060015 779.88098,28.716 L780.43198,28.629 C780.509313,28.9190015 780.54798,29.2379983 780.54798,29.586 C780.54798,30.2820035 780.340148,30.832998 779.92448,31.239 C779.508811,31.645002 778.96265,31.848 778.28598,31.848 C777.60931,31.848 777.058315,31.5725028 776.63298,31.0215 C776.207644,30.4704972 775.99498,29.6440055 775.99498,28.542 L775.99498,28.02 C775.666311,29.3346732 775.144317,30.3013302 774.42898,30.92 C773.713643,31.5386698 772.887151,31.848 771.94948,31.848 C771.011808,31.848 770.257816,31.5531696 769.68748,30.9635 C769.117143,30.3738304 768.83198,29.5908382 768.83198,28.6145 C768.83198,27.6381618 769.286308,26.7681705 770.19498,26.0045 C771.103651,25.2408295 772.408638,24.859 774.10998,24.859 C774.477315,24.859 775.095975,24.9073329 775.96598,25.004 L775.96598,24.743 Z M772.60198,30.746 C773.413984,30.746 774.14381,30.2868379 774.79148,29.3685 C775.43915,28.4501621 775.820979,27.159675 775.93698,25.497 C775.743645,25.4776666 775.472981,25.468 775.12498,25.468 C773.578305,25.468 772.471483,25.7918301 771.80448,26.4395 C771.137476,27.0871699 770.80398,27.8363291 770.80398,28.687 C770.80398,29.2476695 770.968311,29.730998 771.29698,30.137 C771.625648,30.543002 772.060644,30.746 772.60198,30.746 Z" id="brand-Victoria"></path>
            </g>
        </g>
    </g>
</svg>