<?xml version="1.0" encoding="UTF-8"?>
<svg width="139px" height="37px" viewBox="0 0 139 37" version="1.1" xmlns="http://www.w3.org/2000/svg" xmlns:xlink="http://www.w3.org/1999/xlink">
    <!-- Generator: Sketch 42 (36781) - http://www.bohemiancoding.com/sketch -->
    <title>brand-Meena</title>
    <desc>Created with Sketch.</desc>
    <defs></defs>
    <g id="Web" stroke="none" stroke-width="1" fill="none" fill-rule="evenodd" opacity="0.5">
        <g id="Home" transform="translate(-803.000000, -3570.000000)" fill="#FFFFFF">
            <g id="Brands" transform="translate(388.000000, 3570.000000)">
                <path d="M460.656858,31.5969193 C460.849637,31.268387 461.06651,31.0654731 461.307484,30.9881713 C461.548457,30.9108696 461.774969,30.9205322 461.987026,31.0171593 C462.199083,31.1137865 462.382221,31.2780502 462.536444,31.5099553 C462.690667,31.7418605 462.777416,31.9834247 462.796694,32.2346553 C462.796694,32.7564418 462.656932,33.3410273 462.377402,33.9884292 C462.097872,34.635831 461.726778,35.1914288 461.264109,35.6552391 C460.801439,36.1190494 460.276124,36.4040952 459.688148,36.510385 C459.100172,36.6166749 458.497746,36.3896045 457.880853,35.8291671 C457.148293,35.1721025 456.531409,34.2251707 456.030184,32.9883432 C455.528958,31.7515158 455.11449,30.3407806 454.786765,28.7560955 C454.459041,27.1714103 454.208432,25.4707981 454.034931,23.6542077 C453.86143,21.8376174 453.726486,20.0065605 453.630097,18.160982 C453.533707,16.3154036 453.471055,14.5181656 453.442138,12.7692143 C453.413221,11.020263 453.379486,9.41627648 453.34093,7.9572066 C453.302374,6.49813671 453.249361,5.24683396 453.181888,4.2032608 C453.114415,3.15968764 453.003569,2.43499493 452.849346,2.02916092 C452.579455,1.35277091 452.280652,1.1015441 451.952928,1.27547296 C451.625203,1.44940182 451.273387,1.92769901 450.897468,2.71037888 C450.521549,3.49305875 450.126358,4.54144755 449.711883,5.85557671 C449.297408,7.16970588 448.868481,8.62875387 448.425089,10.2327645 C447.981697,11.8367751 447.528673,13.5373873 447.066004,15.3346522 C446.603334,17.1319171 446.135852,18.9194924 445.663543,20.6974319 C445.191234,22.4753714 444.718933,24.1856462 444.246624,25.8283076 C443.774316,27.4709691 443.306833,28.9396796 442.844164,30.2344834 C442.381494,31.5292871 441.93329,32.597001 441.499537,33.4376572 C441.065784,34.2783134 440.646496,34.7855983 440.24166,34.9595271 C439.162097,35.404012 438.25123,35.4861438 437.509031,35.2059251 C436.766831,34.9257064 436.159587,34.3894338 435.687278,33.5970912 C435.214969,32.8047486 434.858333,31.7901788 434.61736,30.5533514 C434.376386,29.3165239 434.212526,27.9541016 434.125776,26.4660436 C434.039025,24.9779856 434.010109,23.4126493 434.039025,21.7699878 C434.067942,20.1273264 434.120956,18.4991834 434.198067,16.8855101 C434.275179,15.2718368 434.352289,13.7258257 434.429401,12.2474304 C434.506513,10.7690351 434.549887,9.44043174 434.559526,8.26158058 C434.569165,7.08272942 434.52579,6.1068099 434.429401,5.33379274 C434.333011,4.56077558 434.149874,4.07764711 433.879983,3.88439282 C433.629371,3.71046396 433.296832,3.94719691 432.882357,4.59459878 C432.467882,5.24200065 431.99558,6.15994475 431.465438,7.34845863 C430.935296,8.53697251 430.356967,9.92355123 429.730435,11.5082364 C429.103904,13.0929216 428.448465,14.7403897 427.764099,16.4506901 C427.079734,18.1609906 426.38092,19.8664341 425.667638,21.5670719 C424.954355,23.2677096 424.255542,24.8233833 423.571176,26.2341396 C422.88681,27.6448959 422.221733,28.8382232 421.575923,29.8141574 C420.930113,30.7900916 420.327688,31.4229899 419.768629,31.7128713 C419.595127,31.8094984 419.421629,31.886799 419.248128,31.9447753 L418.727627,32.1187033 C418.187846,32.2539813 417.705905,32.2684751 417.281791,32.1621853 C416.857678,32.0558954 416.496222,31.8771379 416.197415,31.6259073 C415.898607,31.3746767 415.657637,31.0558119 415.474497,30.6693034 C415.291357,30.2827948 415.161233,29.8866294 415.084121,29.4807954 C415.00701,29.0749614 414.982913,28.6643022 415.01183,28.2488055 C415.040747,27.8333088 415.122676,27.4612998 415.257622,27.1327675 C415.334733,26.881537 415.479315,26.678623 415.691372,26.5240196 C415.903429,26.3694162 416.125122,26.282453 416.356457,26.2631276 C416.587792,26.2438022 416.804665,26.3114402 417.007083,26.4660436 C417.209501,26.620647 417.358902,26.8815364 417.455292,27.2487195 C417.513125,27.5579264 417.498667,27.958923 417.411917,28.4517215 C417.325166,28.9445199 417.252875,29.4228171 417.195041,29.8866274 C417.137208,30.3504377 417.122749,30.7562656 417.151666,31.1041233 C417.180583,31.4519811 417.339623,31.6355699 417.628792,31.6548953 C418.033628,31.6935462 418.414361,31.6693897 418.771002,31.5824253 C419.127643,31.4954609 419.498737,31.345691 419.884295,31.1331113 C420.346965,30.8625553 420.857822,30.2441509 421.416881,29.2778794 C421.97594,28.311608 422.568727,27.1327745 423.195259,25.7413436 C423.821791,24.3499127 424.462771,22.8087329 425.11822,21.1177579 C425.773669,19.4267828 426.438747,17.716508 427.113473,15.9868822 C427.7882,14.2572563 428.462916,12.5711379 429.137643,10.9284764 C429.81237,9.28581498 430.467808,7.8219357 431.103979,6.53679467 C431.74015,5.25165365 432.352214,4.20326486 432.94019,3.39159685 C433.528166,2.57992883 434.072759,2.1451132 434.573985,2.08713692 C435.345101,1.99050977 435.981262,2.0146662 436.482487,2.15960691 C436.983713,2.30454763 437.403001,2.54128058 437.740364,2.86981287 C438.077728,3.19834517 438.352434,3.60417308 438.564491,4.08730881 C438.776548,4.57044453 438.969324,5.08256071 439.142825,5.62367272 C439.431993,6.64792046 439.648867,7.92821092 439.793451,9.46458251 C439.938035,11.0009541 440.039243,12.6339284 440.097076,14.3635542 C440.15491,16.0931801 440.179007,17.8372739 440.169368,19.595888 C440.159729,21.354502 440.15491,22.9681511 440.15491,24.4368837 C440.15491,25.9056163 440.164549,27.1520878 440.183826,28.1763355 C440.203104,29.2005832 440.280215,29.8383128 440.41516,30.0895434 C440.550105,30.3600994 440.742882,30.2827988 440.993494,29.8576394 C441.244107,29.43248 441.533271,28.7512688 441.860996,27.8139855 C442.18872,26.8767022 442.554995,25.736519 442.959831,24.3934017 C443.364667,23.0502844 443.793594,21.6057302 444.246624,20.0596959 C444.699655,18.5136616 445.167137,16.9193377 445.649085,15.2766762 C446.131032,13.6340147 446.622612,12.0348595 447.123837,10.4791625 C447.625062,8.92346543 448.1311,7.46441743 448.641964,6.1019747 C449.152829,4.73953196 449.649227,3.57519233 450.131175,2.60892089 C450.613123,1.64264944 451.080605,0.927619299 451.533635,0.463809005 C451.986666,-1.2883542e-06 452.405954,-0.115952122 452.791512,0.115953024 C453.119237,0.309207313 453.360207,0.87446763 453.51443,1.81175093 C453.668653,2.74903423 453.784319,3.93753028 453.861431,5.37727474 C453.938542,6.81701919 453.996375,8.44999344 454.034931,10.2762465 C454.073487,12.1024995 454.136139,13.9963631 454.222889,15.9578942 C454.30964,17.9194252 454.444583,19.8954207 454.627723,21.8859398 C454.810864,23.876459 455.08075,25.7509975 455.437391,27.5096115 C455.794033,29.2682256 456.261515,30.8625495 456.839852,32.2926313 C457.418189,33.722713 458.150738,34.8628962 459.037522,35.7132151 C459.230301,35.9257948 459.394161,35.8774819 459.529106,35.5682751 C459.664051,35.2590682 459.789356,34.8580716 459.905023,34.3652732 C460.020691,33.8724747 460.136356,33.3555272 460.252024,32.8144152 C460.367691,32.2733032 460.502634,31.8674753 460.656858,31.5969193 Z M486.652981,21.2771919 C485.322805,21.644375 484.031205,22.2579482 482.778141,23.1179298 C481.525078,23.9779114 480.320227,24.9441683 479.163553,26.0167296 C478.006878,27.0892909 476.908054,28.2004864 475.867048,29.3503494 C474.826041,30.5002124 473.847702,31.5389387 472.932001,32.4665593 C472.016301,33.3941798 471.163267,34.1478603 470.372872,34.7276231 C469.582478,35.307386 468.878845,35.5586128 468.261953,35.4813111 C467.587226,35.4233348 466.965523,35.2494086 466.396825,34.9595271 C465.828127,34.6696457 465.331728,34.2686491 464.907614,33.7565252 C464.4835,33.2444013 464.150961,32.6356594 463.909988,31.9302813 C463.669014,31.2249031 463.558168,30.4180786 463.577445,29.5097834 C463.596723,28.6208137 463.712389,27.6448942 463.924446,26.5819956 C464.136503,25.519097 464.454584,24.4707082 464.878697,23.4367977 C465.302811,22.4028873 465.832946,21.4269678 466.469117,20.5090099 C467.105287,19.591052 467.857114,18.8228778 468.72462,18.204464 C469.322235,17.7793046 470.00659,17.4507772 470.777706,17.2188721 C471.548823,16.9869669 472.319927,16.8420284 473.091043,16.7840521 C473.862159,16.7260758 474.594709,16.7502323 475.288713,16.8565221 C475.982718,16.962812 476.556227,17.1415695 477.009258,17.3928001 C477.462288,17.6440307 477.751453,17.9677267 477.876759,18.363898 C478.002065,18.7600693 477.88158,19.2093788 477.5153,19.71184 C477.303243,19.982396 477.009259,20.2384541 476.63334,20.4800219 C476.257421,20.7215898 475.823675,20.9534914 475.332088,21.1757339 C474.840502,21.3979763 474.300729,21.6105528 473.712753,21.8134698 C473.124776,22.0163868 472.522351,22.2048069 471.905458,22.3787358 C471.5199,23.0744512 471.143987,23.8474568 470.777706,24.6977757 C470.411426,25.5480946 470.074068,26.4080632 469.765622,27.2777075 C469.457175,28.1473518 469.192108,28.9928267 468.970412,29.8141574 C468.748716,30.6354881 468.594495,31.3746747 468.507745,32.0317393 C468.420994,32.6888039 468.406536,33.2299078 468.46437,33.6550672 C468.522203,34.0802266 468.686063,34.3217909 468.955954,34.3797672 C469.457179,34.5150452 470.030688,34.3459502 470.676498,33.8724772 C471.322308,33.3990042 472.050038,32.7419494 472.85971,31.9012933 C473.669382,31.0606371 474.560971,30.0992115 475.534505,29.0169874 C476.508039,27.9347634 477.563489,26.8670495 478.700885,25.8138136 C479.838281,24.7605777 481.067229,23.7798269 482.387766,22.8715318 C483.708302,21.9632366 485.130026,21.257869 486.652981,20.7554079 L486.652981,21.2771919 Z M473.987461,19.595888 C473.698293,19.8084677 473.409129,20.1080073 473.11996,20.4945159 C472.830791,20.8810245 472.52235,21.3351653 472.194625,21.8569518 C472.772962,21.683023 473.322374,21.4897716 473.842878,21.2771919 C474.363381,21.0646122 474.816405,20.8520356 475.201963,20.6394559 C475.973079,20.2529473 476.4502,19.9099261 476.63334,19.610382 C476.81648,19.3108378 476.802022,19.0982613 476.589965,18.972646 C476.377908,18.8470307 476.026092,18.8277056 475.534505,18.91467 C475.042919,19.0016344 474.527243,19.2287048 473.987461,19.595888 Z M506.056094,21.2771919 C504.725918,21.644375 503.434318,22.2579482 502.181254,23.1179298 C500.928191,23.9779114 499.72334,24.9441683 498.566665,26.0167296 C497.409991,27.0892909 496.311167,28.2004864 495.27016,29.3503494 C494.229154,30.5002124 493.250815,31.5389387 492.335114,32.4665593 C491.419414,33.3941798 490.566379,34.1478603 489.775985,34.7276231 C488.985591,35.307386 488.281958,35.5586128 487.665065,35.4813111 C486.990339,35.4233348 486.368636,35.2494086 485.799938,34.9595271 C485.231239,34.6696457 484.734841,34.2686491 484.310727,33.7565252 C483.886613,33.2444013 483.554074,32.6356594 483.313101,31.9302813 C483.072127,31.2249031 482.96128,30.4180786 482.980558,29.5097834 C482.999836,28.6208137 483.115502,27.6448942 483.327559,26.5819956 C483.539616,25.519097 483.857696,24.4707082 484.28181,23.4367977 C484.705924,22.4028873 485.236059,21.4269678 485.872229,20.5090099 C486.5084,19.591052 487.260227,18.8228778 488.127733,18.204464 C488.725348,17.7793046 489.409703,17.4507772 490.180819,17.2188721 C490.951935,16.9869669 491.72304,16.8420284 492.494156,16.7840521 C493.265272,16.7260758 493.997822,16.7502323 494.691826,16.8565221 C495.385831,16.962812 495.95934,17.1415695 496.412371,17.3928001 C496.865401,17.6440307 497.154565,17.9677267 497.279872,18.363898 C497.405178,18.7600693 497.284693,19.2093788 496.918413,19.71184 C496.706356,19.982396 496.412372,20.2384541 496.036453,20.4800219 C495.660534,20.7215898 495.226788,20.9534914 494.735201,21.1757339 C494.243615,21.3979763 493.703842,21.6105528 493.115865,21.8134698 C492.527889,22.0163868 491.925464,22.2048069 491.308571,22.3787358 C490.923013,23.0744512 490.5471,23.8474568 490.180819,24.6977757 C489.814539,25.5480946 489.477181,26.4080632 489.168734,27.2777075 C488.860288,28.1473518 488.595221,28.9928267 488.373525,29.8141574 C488.151829,30.6354881 487.997608,31.3746747 487.910858,32.0317393 C487.824107,32.6888039 487.809649,33.2299078 487.867482,33.6550672 C487.925316,34.0802266 488.089176,34.3217909 488.359067,34.3797672 C488.860292,34.5150452 489.433801,34.3459502 490.079611,33.8724772 C490.725421,33.3990042 491.453151,32.7419494 492.262823,31.9012933 C493.072494,31.0606371 493.964084,30.0992115 494.937618,29.0169874 C495.911152,27.9347634 496.966602,26.8670495 498.103998,25.8138136 C499.241394,24.7605777 500.470342,23.7798269 501.790879,22.8715318 C503.111415,21.9632366 504.533139,21.257869 506.056094,20.7554079 L506.056094,21.2771919 Z M493.390574,19.595888 C493.101406,19.8084677 492.812241,20.1080073 492.523073,20.4945159 C492.233904,20.8810245 491.925463,21.3351653 491.597738,21.8569518 C492.176075,21.683023 492.725487,21.4897716 493.245991,21.2771919 C493.766494,21.0646122 494.219518,20.8520356 494.605076,20.6394559 C495.376192,20.2529473 495.853313,19.9099261 496.036453,19.610382 C496.219593,19.3108378 496.205135,19.0982613 495.993078,18.972646 C495.781021,18.8470307 495.429205,18.8277056 494.937618,18.91467 C494.446032,19.0016344 493.930356,19.2287048 493.390574,19.595888 Z M517.391444,35.3073831 C517.815558,35.0948034 518.326415,34.698638 518.92403,34.1188752 C519.521645,33.5391123 520.172264,32.8434073 520.875908,32.0317393 C521.579551,31.2200713 522.336198,30.3214523 523.14587,29.3358554 C523.955542,28.3502586 524.798937,27.3550139 525.676082,26.3500916 C526.553226,25.3451693 527.449635,24.3595872 528.365336,23.3933158 C529.281036,22.4270443 530.211181,21.5477505 531.155798,20.7554079 L531.155798,21.2771919 C530.172625,22.1468362 529.189467,23.1227557 528.206294,24.2049797 C527.223121,25.2872037 526.25924,26.3887367 525.314623,27.5096115 C524.370006,28.6304864 523.459138,29.727188 522.581994,30.7997493 C521.704849,31.8723107 520.875912,32.8433989 520.095157,33.7130432 C519.314402,34.5826875 518.60113,35.3073802 517.95532,35.8871431 C517.30951,36.4669059 516.755279,36.8147584 516.292609,36.930711 C515.73355,37.065989 515.222693,37.0031823 514.760023,36.742289 C514.297354,36.4813957 513.902163,36.1190494 513.574438,35.6552391 C513.246714,35.1914288 513.000924,34.66965 512.837062,34.0898872 C512.6732,33.5101243 512.629825,32.9690204 512.706937,32.4665593 C512.764771,32.002749 512.827423,31.5099579 512.894896,30.9881713 C512.962368,30.4663848 513.034659,29.9397747 513.111771,29.4083254 C513.188883,28.8768761 513.285271,28.3599287 513.400938,27.8574675 C513.516606,27.3550064 513.651549,26.8815405 513.805772,26.4370556 C513.940717,25.8959436 514.08048,25.3500084 514.225064,24.7992337 C514.369649,24.248459 514.490134,23.7653305 514.586523,23.3498338 C514.682913,22.934337 514.745565,22.6154722 514.774482,22.3932298 C514.803399,22.1709874 514.769663,22.1081807 514.673273,22.2048078 C513.747934,23.2290555 512.822608,24.3644075 511.897269,25.6108976 C510.97193,26.8573878 509.873106,28.1376783 508.600764,29.4518074 C508.504375,29.9542686 508.432084,30.3600965 508.383889,30.6693034 C508.335694,30.9785102 508.311597,31.1524365 508.311597,31.1910873 C508.253763,31.6162468 508.142917,31.89163 507.979055,32.0172453 C507.815193,32.1428606 507.603139,32.1911734 507.342887,32.1621853 C507.082635,32.1331971 506.759735,32.0558966 506.374177,31.9302813 C505.988619,31.804666 505.554873,31.6935464 505.072925,31.5969193 C504.629534,31.5196176 504.296995,31.3940042 504.075299,31.2200753 C503.853603,31.0461465 503.704201,30.8239074 503.62709,30.5533514 C503.549978,30.2827954 503.516242,29.9639306 503.525881,29.5967474 C503.53552,29.2295643 503.549979,28.8140738 503.569256,28.3502635 C503.607812,27.9637549 503.689742,27.0892924 503.815048,25.7268496 C503.940355,24.3644069 504.147589,22.6879511 504.436758,20.6974319 C504.475314,20.5428285 504.523508,20.2964329 504.581341,19.9582379 C504.639175,19.6200429 504.721105,19.2576966 504.827133,18.871188 C504.933162,18.4846794 505.058466,18.0981766 505.203051,17.7116681 C505.347635,17.3251595 505.516314,17.0014634 505.709093,16.7405701 C505.901872,16.4796768 506.128384,16.3154131 506.388636,16.2477741 C506.648887,16.1801351 506.942871,16.2526044 507.270595,16.4651841 C507.694709,16.7550656 508.109178,17.0062924 508.514014,17.2188721 C508.91885,17.4314518 509.265847,17.6440283 509.555016,17.8566081 C509.844184,18.0691878 510.046599,18.3059207 510.162266,18.566814 C510.277934,18.8277073 510.258656,19.1514034 510.104433,19.537912 C510.104433,19.5765628 510.056239,19.9099215 509.959849,20.5379979 C509.86346,21.1660743 509.742975,21.9390799 509.598391,22.8570378 C509.453806,23.7749957 509.304405,24.7557465 509.150182,25.7993196 C508.995958,26.8428928 508.851376,27.7898246 508.716431,28.6401435 C509.564659,27.6931974 510.36468,26.7462656 511.116518,25.7993196 C511.868356,24.8523736 512.547892,23.9924049 513.155146,23.2193878 C513.7624,22.4463706 514.278076,21.808641 514.70219,21.3061799 C515.126304,20.8037187 515.444385,20.5235042 515.656442,20.4655279 C516.196223,20.3302499 516.70226,20.3882253 517.174569,20.6394559 C517.646877,20.8906865 518.056527,21.2433703 518.403529,21.6975178 C518.750531,22.1516654 519.015599,22.6637816 519.198739,23.2338818 C519.381879,23.8039819 519.434892,24.330592 519.35778,24.8137277 C519.338503,24.9683311 519.251753,25.3500026 519.09753,25.9587536 C518.943307,26.5675046 518.769808,27.2728722 518.577029,28.0748775 C518.38425,28.8768828 518.181835,29.7175263 517.969778,30.5968334 C517.757721,31.4761404 517.579404,32.2781336 517.434819,33.0028372 C517.290235,33.7275408 517.203486,34.3121263 517.174569,34.7566111 C517.145652,35.201096 517.217943,35.3846848 517.391444,35.3073831 Z M543.01165,31.0171593 C543.551431,30.5340236 544.120121,29.9107879 544.717736,29.1474334 C545.315351,28.384079 546.028623,27.5434354 546.857572,26.6254776 C547.686522,25.7075197 548.669681,24.7412628 549.807077,23.7266777 C550.944473,22.7120927 552.3421,21.7216793 554,20.7554079 L554,21.2771919 C552.80477,21.8956056 551.657752,22.6975989 550.558911,23.6831957 C549.460071,24.6687926 548.443177,25.6785311 547.508198,26.7124416 C546.57322,27.746352 545.725005,28.7174403 544.963528,29.6257354 C544.202051,30.5340306 543.551431,31.2104104 543.01165,31.6548953 C542.664648,32.0414039 542.365845,32.3506061 542.115232,32.5825113 C541.864619,32.8144164 541.662204,32.9496924 541.507981,32.9883432 C540.948922,33.1429467 540.438065,33.0898025 539.975395,32.8289092 C539.512726,32.5680159 539.117534,32.2056696 538.78981,31.7418593 C538.462086,31.278049 538.216296,30.751439 538.052434,30.1620134 C537.888572,29.5725878 537.845197,29.0266526 537.922309,28.5241915 C537.960865,28.1376829 537.989781,27.7705053 538.009059,27.4226475 C538.028337,27.0747898 538.057253,26.7269373 538.095809,26.3790796 C537.710251,27.0168187 537.334338,27.6303919 536.968057,28.2198175 C536.601777,28.8092431 536.225864,29.3310218 535.840306,29.7851694 C535.454748,30.239317 535.054737,30.5968321 534.640262,30.8577253 C534.225787,31.1186186 533.777583,31.2297382 533.295635,31.1910873 C532.678742,31.1524365 532.110053,31.0123292 531.589549,30.7707613 C531.069046,30.5291935 530.616022,30.1910036 530.230464,29.7561814 C529.844906,29.3213593 529.541283,28.7899179 529.319587,28.1618415 C529.097891,27.5337651 528.977406,26.8235662 528.958128,26.0312236 C528.919573,24.427213 529.17982,22.8908645 529.73888,21.4221319 C530.297939,19.9533993 531.329291,18.6489524 532.832968,17.5087521 C533.604084,16.9096638 534.495674,16.5134984 535.507763,16.3202441 C536.519853,16.1269898 537.474095,16.112496 538.370518,16.2767621 C539.26694,16.4410283 540.013948,16.7792182 540.611563,17.2913421 C541.209178,17.803466 541.469426,18.4750145 541.392314,19.306008 C541.353758,19.4606114 541.271828,19.6393689 541.146522,19.8422859 C541.021216,20.0452029 540.871814,20.2529482 540.698313,20.4655279 C540.775425,20.4655279 540.89109,20.5041782 541.045314,20.5814799 L541.739315,21.0452879 C542.086317,21.2578676 542.418856,21.4462877 542.736941,21.6105538 C543.055027,21.77482 543.320094,21.9535775 543.532151,22.1468318 C543.744208,22.3400861 543.88879,22.5574939 543.965901,22.7990618 C544.043013,23.0406296 544.014097,23.3256754 543.879151,23.6542077 C543.821318,23.7894857 543.734568,24.0938567 543.618901,24.5673297 C543.503233,25.0408027 543.36829,25.5770753 543.214067,26.1761636 C543.059844,26.7752519 542.915262,27.4033189 542.780316,28.0603835 C542.645371,28.7174481 542.534525,29.3068648 542.447774,29.8286514 C542.361023,30.350438 542.317649,30.7610972 542.317649,31.0606413 C542.317649,31.3601855 542.394759,31.4616425 542.548983,31.3650153 C542.645372,31.307039 542.722483,31.2490636 542.780316,31.1910873 C542.83815,31.133111 542.91526,31.0751356 543.01165,31.0171593 Z M533.816136,30.2054954 C534.086027,30.18617 534.38483,30.0267376 534.712554,29.7271934 C535.040278,29.4276493 535.392095,29.0459778 535.768014,28.5821675 C536.143933,28.1183572 536.534305,27.5869159 536.939141,26.9878276 C537.343977,26.3887393 537.768084,25.7799974 538.211476,25.1615837 C538.26931,24.5431699 538.384975,23.8667901 538.558476,23.1324238 C538.674144,22.7265898 538.794629,22.3255931 538.919935,21.9294218 C539.045242,21.5332505 539.194643,21.1998919 539.368144,20.9293359 C539.271755,20.4462002 539.266935,20.1031789 539.353686,19.9002619 C539.440437,19.6973449 539.565741,19.562069 539.729603,19.49443 C539.893465,19.426791 540.062145,19.3881407 540.235646,19.378478 C540.409147,19.3688153 540.524812,19.3060086 540.582646,19.190056 C540.736869,18.9388254 540.756147,18.6972612 540.64048,18.465356 C540.524812,18.2334509 540.312758,18.0691872 540.004312,17.97256 C539.695866,17.8759329 539.324771,17.8662703 538.891019,17.9435721 C538.457266,18.0208738 537.999422,18.2431129 537.517475,18.610296 C537.112639,18.9001774 536.70299,19.3929685 536.288515,20.0886839 C535.87404,20.7843994 535.478849,21.5670675 535.10293,22.4367118 C534.72701,23.3063561 534.394472,24.2098064 534.105303,25.1470897 C533.816134,26.084373 533.599261,26.9346791 533.454677,27.6980335 C533.310093,28.461388 533.257079,29.0797924 533.295635,29.5532654 C533.334191,30.0267384 533.507689,30.2441462 533.816136,30.2054954 Z" id="brand-Meena"></path>
            </g>
        </g>
    </g>
</svg>