<?xml version="1.0" encoding="UTF-8"?>
<svg width="20px" height="22px" viewBox="0 0 20 22" version="1.1" xmlns="http://www.w3.org/2000/svg" xmlns:xlink="http://www.w3.org/1999/xlink">
    <!-- Generator: Sketch 42 (36781) - http://www.bohemiancoding.com/sketch -->
    <title>Shape</title>
    <desc>Created with Sketch.</desc>
    <defs></defs>
    <g id="Web" stroke="none" stroke-width="1" fill="none" fill-rule="evenodd">
        <g id="Home" transform="translate(-388.000000, -58.000000)" fill="#E2C79B">
            <g id="Cart" transform="translate(388.000000, 42.000000)">
                <path d="M5.70002903,30.6487622 L17.5584337,30.6487622 C18.9030644,30.6487622 20,29.5518266 20,28.2071959 L20,23.2179081 L20,23.2002156 L20,23.1648306 C20,23.1559844 20,23.1471381 19.9955769,23.1382918 C19.9955769,23.1294456 19.9911537,23.1161762 19.9911537,23.10733 C19.9911537,23.0984837 19.9867306,23.0896374 19.9867306,23.0807912 C19.9823075,23.0719449 19.9823075,23.0630987 19.9778844,23.0498293 C19.9734612,23.040983 19.9734612,23.0321368 19.9690381,23.0232905 C19.964615,23.0144443 19.964615,23.005598 19.9601919,22.9967518 C19.9557687,22.9879055 19.9513456,22.9790593 19.9469225,22.9657899 C19.9424993,22.9569436 19.9380762,22.9480974 19.9336531,22.9436742 C19.92923,22.934828 19.9248068,22.9259817 19.9203837,22.9171355 C19.9159606,22.9082892 19.9115375,22.9038661 19.9071143,22.8950198 C19.9026912,22.8861736 19.8938449,22.8773273 19.8894218,22.8684811 C19.8849987,22.8596348 19.8805756,22.8552117 19.8717293,22.8463654 C19.8673062,22.8375192 19.8584599,22.8330961 19.8540368,22.8242498 C19.8496137,22.8154035 19.8407674,22.8109804 19.8363443,22.8021342 C19.8319212,22.7932879 19.8230749,22.7888648 19.8186518,22.7844416 C19.8098055,22.7755954 19.8053824,22.7711723 19.7965361,22.762326 C19.7876899,22.7579029 19.7832668,22.7490566 19.7744205,22.7446335 C19.7655742,22.7402104 19.756728,22.7313641 19.7478817,22.726941 C19.7390355,22.7225179 19.7346124,22.7180947 19.7257661,22.7136716 C19.7169198,22.7092485 19.7080736,22.7048254 19.6992273,22.6959791 C19.6903811,22.691556 19.6815348,22.6871328 19.6726886,22.6827097 C19.6638423,22.6782866 19.6549961,22.6738635 19.6461498,22.6694403 C19.6373036,22.6650172 19.6284573,22.6605941 19.619611,22.656171 C19.6107648,22.6517478 19.6019185,22.6517478 19.5930723,22.6473247 C19.584226,22.6429016 19.5709566,22.6384784 19.5621104,22.6384784 C19.5532641,22.6384784 19.5444179,22.6340553 19.5399947,22.6340553 C19.5267254,22.6296322 19.5178791,22.6296322 19.5046097,22.6296322 C19.5001866,22.6296322 19.4957635,22.6252091 19.4869172,22.6252091 L4.45713022,20.5507623 L4.45713022,18.4541999 C4.45713022,18.4320843 4.45713022,18.4099686 4.45270709,18.3922761 C4.45270709,18.387853 4.45270709,18.3834299 4.44828396,18.3745836 C4.44828396,18.3613142 4.44386084,18.3480448 4.44386084,18.3347755 C4.43943771,18.3215061 4.43943771,18.3126598 4.43501458,18.2993904 C4.43501458,18.2905442 4.43059146,18.2861211 4.43059146,18.2772748 C4.42616833,18.2640054 4.4217452,18.250736 4.41732207,18.2374667 C4.41732207,18.2330435 4.41289895,18.2241973 4.41289895,18.2197741 C4.40847582,18.2065048 4.40405269,18.1976585 4.39520644,18.1843891 C4.39078331,18.179966 4.39078331,18.1711197 4.38636018,18.1666966 C4.38193705,18.1578504 4.37751393,18.1490041 4.36866767,18.1401579 C4.36424454,18.1313116 4.35982142,18.1268885 4.35539829,18.1180422 C4.35097516,18.109196 4.34655203,18.1047728 4.34212891,18.0959266 C4.33770578,18.0870803 4.32885952,18.0782341 4.3244364,18.0693878 C4.32001327,18.0649647 4.31559014,18.0605416 4.31116701,18.0561184 C4.30232076,18.0472722 4.2934745,18.0384259 4.28462825,18.0295797 C4.28020512,18.0251565 4.275782,18.0207334 4.27135887,18.0163103 C4.26251261,18.007464 4.25366636,17.9986178 4.24039698,17.9897715 C4.23597385,17.9853484 4.22712759,17.9809253 4.22270447,17.9765021 C4.21385821,17.9676559 4.20501196,17.9632328 4.1961657,17.9543865 C4.18289632,17.9455402 4.16962694,17.936694 4.16078068,17.9322709 C4.15635755,17.9278477 4.15193443,17.9278477 4.1475113,17.9234246 C4.12981879,17.9145784 4.10770315,17.9057321 4.09001064,17.8968858 L0.830165729,16.5257163 C0.524969937,16.3974456 0.17554287,16.5389857 0.0472721744,16.8441815 C-0.080998521,17.1493773 0.0605415567,17.4988044 0.365737349,17.6270751 L3.25846269,18.8478582 L3.25846269,21.5548122 L3.25846269,21.9838556 L3.25846269,25.2746624 L3.25846269,28.2160421 L3.25846269,31.9314692 C3.25846269,33.1699448 4.18731945,34.1961104 5.38598698,34.3509199 C5.16925374,34.7136163 5.04098304,35.1382366 5.04098304,35.5893956 C5.04098304,36.9207569 6.12464926,38 7.45158749,38 C8.77852572,38 9.86219194,36.9163338 9.86219194,35.5893956 C9.86219194,35.1470828 9.7427675,34.7268857 9.53045738,34.3730355 L14.9001341,34.3730355 C14.687824,34.7313088 14.5683995,35.1470828 14.5683995,35.5893956 C14.5683995,36.9207569 15.6520657,38 16.979004,38 C18.3059422,38 19.3896084,36.9163338 19.3896084,35.5893956 C19.3896084,34.2624573 18.3059422,33.1787911 16.979004,33.1787911 L5.70002903,33.1787911 C5.01002115,33.1787911 4.45270709,32.6170539 4.45270709,31.9314692 L4.45270709,30.3126045 C4.81540354,30.5249146 5.2444469,30.6487622 5.70002903,30.6487622 Z M8.67237066,35.5849724 C8.67237066,36.2572878 8.12390286,36.8013325 7.45601062,36.8013325 C6.78811837,36.8013325 6.23965057,36.2528647 6.23965057,35.5849724 C6.23965057,34.9170802 6.78811837,34.3686124 7.45601062,34.3686124 C8.12390286,34.3686124 8.67237066,34.9126571 8.67237066,35.5849724 Z M18.1997871,35.5849724 C18.1997871,36.2572878 17.6513193,36.8013325 16.9834271,36.8013325 C16.3155349,36.8013325 15.7670671,36.2528647 15.7670671,35.5849724 C15.7670671,34.9170802 16.3155349,34.3686124 16.9834271,34.3686124 C17.6513193,34.3686124 18.1997871,34.9126571 18.1997871,35.5849724 Z M17.5584337,29.4545178 L5.70002903,29.4545178 C5.01002115,29.4545178 4.45270709,28.8927806 4.45270709,28.2071959 L4.45270709,25.2658161 L4.45270709,21.9750093 L4.45270709,21.753853 L18.8057556,23.7309909 L18.8057556,28.2027727 C18.8057556,28.8972038 18.2440184,29.4545178 17.5584337,29.4545178 Z" id="Shape"></path>
            </g>
        </g>
    </g>
</svg>
