<?xml version="1.0" encoding="UTF-8"?>
<svg width="177px" height="48px" viewBox="0 0 177 48" version="1.1" xmlns="http://www.w3.org/2000/svg" xmlns:xlink="http://www.w3.org/1999/xlink">
    <!-- Generator: Sketch 42 (36781) - http://www.bohemiancoding.com/sketch -->
    <title>Logo</title>
    <desc>Created with Sketch.</desc>
    <defs></defs>
    <g id="Web" stroke="none" stroke-width="1" fill="none" fill-rule="evenodd">
        <g id="Home" transform="translate(-811.000000, -43.000000)">
            <g id="Logo" transform="translate(808.000000, 35.000000)">
                <g>
                    <path d="M3,8.38461538 L15.5300892,8.38461538 L15.5300892,11.4023669 L6.53720221,11.4023669 L6.53720221,16.4615385 L14.9605397,16.4615385 L14.9605397,19.4792899 L6.53720221,19.4792899 L6.53720221,24.5384615 L15.5300892,24.5384615 L15.5300892,27.5857988 L3,27.5857988 L3,8.38461538 Z M29.1293327,24.5384615 L37.1330021,24.5384615 L37.1330021,27.5857988 L25.5921305,27.5857988 L25.5921305,8.38461538 L29.1293327,8.38461538 L29.1293327,24.5384615 Z M45.3664898,8.38461538 L57.896579,8.38461538 L57.896579,11.4023669 L48.903692,11.4023669 L48.903692,16.4615385 L57.3270295,16.4615385 L57.3270295,19.4792899 L48.903692,19.4792899 L48.903692,24.5384615 L57.896579,24.5384615 L57.896579,27.5857988 L45.3664898,27.5857988 L45.3664898,8.38461538 Z M79.8891837,24.5384615 C79.0498434,26.8461654 77.4411319,28 75.063001,28 C72.6249172,28 70.6165259,27.0927112 69.0377667,25.2781065 C67.3990547,23.4043299 66.579711,21.0079041 66.579711,18.0887574 C66.579711,15.0118189 67.4590067,12.5463604 69.2176245,10.6923077 C70.9162894,8.89742692 73.1045367,8 75.782432,8 C77.6010027,8 79.1247822,8.38954246 80.3538162,9.16863905 C81.5828502,9.94773565 82.5470779,11.175534 83.2465282,12.852071 L79.6193971,13.6804734 C78.5602295,12.0039364 77.221302,11.1656805 75.6025742,11.1656805 C74.1237365,11.1656805 72.8947209,11.786976 71.9154906,13.0295858 C70.8962916,14.2919195 70.3866998,15.9782932 70.3866998,18.0887574 C70.3866998,20.0808778 70.8463316,21.6982186 71.7656091,22.9408284 C72.6649023,24.1637142 73.8639419,24.7751479 75.3627639,24.7751479 C76.6417587,24.7751479 77.6909183,24.3708127 78.5102744,23.5621302 C79.3496147,22.7337237 79.7692785,21.5996127 79.7692785,20.1597633 L79.7692785,20.0414201 L75.3927402,19.9526627 L75.3927402,17.704142 L83.1565993,17.704142 L83.1565993,27.5857988 L80.2788755,27.5857988 L79.8891837,24.5384615 Z M97.7450604,8.38461538 L102.181551,8.38461538 L108.566501,27.5857988 L104.819465,27.5857988 L103.470532,23.443787 L96.2462459,23.443787 L94.8673366,27.5857988 L91.1203003,27.5857988 L97.7450604,8.38461538 Z M97.1455346,20.8106509 L102.601219,20.8106509 L99.9033533,12.556213 L97.1455346,20.8106509 Z M120.816812,8.38461538 L129.39003,21.9940828 L129.39003,8.38461538 L132.927233,8.38461538 L132.927233,27.5857988 L129.330078,27.5857988 L120.487072,13.5029586 L120.487072,27.5857988 L116.94987,27.5857988 L116.94987,8.38461538 L120.816812,8.38461538 Z M150.483347,8 C151.682404,8 152.721572,8.1429966 153.600881,8.42899408 C154.48019,8.71499157 155.239581,9.11439586 155.879079,9.62721893 C157.138089,10.6331411 157.957433,12.0433834 158.337134,13.8579882 L154.560122,14.5384615 C154.240373,13.5325393 153.745769,12.718938 153.076296,12.0976331 C152.406822,11.4763283 151.57249,11.1656805 150.573275,11.1656805 C149.214343,11.1656805 148.115224,11.727805 147.275883,12.852071 C146.37659,14.0749568 145.92695,15.7662614 145.92695,17.9260355 C145.92695,20.0858096 146.32663,21.7721833 147.126002,22.9852071 C147.925374,24.1982309 149.014501,24.8047337 150.393418,24.8047337 C151.772334,24.8047337 152.811502,24.4743623 153.510952,23.8136095 C154.210402,23.1528567 154.560122,22.299808 154.560122,21.2544379 L158.367111,21.2544379 C158.367111,23.40435 157.672667,25.0660691 156.283759,26.239645 C154.89485,27.4132209 152.991375,28 150.573275,28 C147.995302,28 145.946942,27.1124349 144.428136,25.3372781 C142.889345,23.5226734 142.119962,21.0572148 142.119962,17.9408284 C142.119962,14.7849941 142.909329,12.3195355 144.488089,10.5443787 C146.006895,8.84811775 148.005294,8 150.483347,8 Z M167.469911,8.38461538 L180,8.38461538 L180,11.4023669 L171.007113,11.4023669 L171.007113,16.4615385 L179.43045,16.4615385 L179.43045,19.4792899 L171.007113,19.4792899 L171.007113,24.5384615 L180,24.5384615 L180,27.5857988 L167.469911,27.5857988 L167.469911,8.38461538 Z" id="Elegance" fill="#FFFFFF"></path>
                    <path d="M30.2595173,50.9519231 L34.7236293,50.9519231 L34.7236293,52.0576923 L29,52.0576923 L29,41.9775641 L30.2595173,41.9775641 L30.2595173,50.9519231 Z M43.1376832,50.5352564 C42.6168675,51.6463731 41.7718834,52.2019231 40.6027053,52.2019231 C39.7417651,52.2019231 39.0482404,51.9615409 38.5221103,51.4807692 C37.9959802,50.9999976 37.7329191,50.2574837 37.7329191,49.2532051 L37.7329191,44.3814103 L38.9924364,44.3814103 L38.9924364,49.1570513 C38.9924364,50.4497928 39.5876453,51.0961538 40.7780812,51.0961538 C41.4689591,51.0961538 42.0296247,50.8290625 42.4600948,50.2948718 C42.8905649,49.7606811 43.1164254,49.0769272 43.1376832,48.2435897 L43.1376832,44.3814103 L44.3972005,44.3814103 L44.3972005,52.0576923 L43.1376832,52.0576923 L43.1376832,50.5352564 Z M55.2346295,52.0576923 L53.7040768,52.0576923 L51.5198506,49.1570513 L49.4472272,52.0576923 L47.9166745,52.0576923 L50.802404,48.2275641 L47.9166745,44.3814103 L49.4472272,44.3814103 L51.6314534,47.2660256 L53.7200201,44.3814103 L55.2505728,44.3814103 L52.3329567,48.2275641 L55.2346295,52.0576923 Z M63.9516053,50.5352564 C63.4307896,51.6463731 62.5858055,52.2019231 61.4166274,52.2019231 C60.5556872,52.2019231 59.8621625,51.9615409 59.3360324,51.4807692 C58.8099023,50.9999976 58.5468412,50.2574837 58.5468412,49.2532051 L58.5468412,44.3814103 L59.8063585,44.3814103 L59.8063585,49.1570513 C59.8063585,50.4497928 60.4015675,51.0961538 61.5920033,51.0961538 C62.2828812,51.0961538 62.8435468,50.8290625 63.2740169,50.2948718 C63.704487,49.7606811 63.9303475,49.0769272 63.9516053,48.2435897 L63.9516053,44.3814103 L65.2111226,44.3814103 L65.2111226,52.0576923 L63.9516053,52.0576923 L63.9516053,50.5352564 Z M73.035276,45.4711538 C71.8342113,45.4711538 71.2124305,46.421999 71.1699149,48.3237179 L71.1699149,52.0576923 L69.9103976,52.0576923 L69.9103976,44.3814103 L71.1699149,44.3814103 L71.1699149,45.8557692 C71.552555,44.7873878 72.2274795,44.2532051 73.1947086,44.2532051 C73.5029464,44.2532051 73.7952366,44.3012816 74.0715877,44.3974359 L74.0078147,45.6314103 C73.688948,45.5245721 73.3647717,45.4711538 73.035276,45.4711538 Z M75.9648495,54.2852564 C76.4856652,54.6912413 77.0330449,54.8942308 77.607005,54.8942308 C78.0321606,54.8942308 78.3988519,54.6805577 78.7070897,54.2532051 C78.9302964,53.9433745 79.1322423,53.4732937 79.3129335,52.8429487 L79.5361391,52.0576923 L76.4112607,44.3974359 L77.8142673,44.3974359 L80.1260396,50.5032051 L81.9276277,44.3974359 L83.2030882,44.3974359 L80.3492452,53.5801282 C80.1047807,54.3600466 79.7832616,54.9583313 79.3846782,55.375 C78.9860947,55.7916687 78.48123,56 77.8700687,56 C77.2589075,56 76.6238408,55.8130361 75.9648495,55.4391026 L75.9648495,54.2852564 Z M91.9957945,41.9775641 L98.0861187,41.9775641 L98.0861187,43.0673077 L93.2553118,43.0673077 L93.2553118,46.4166667 L97.7513103,46.4166667 L97.7513103,47.5064103 L93.2553118,47.5064103 L93.2553118,52.0576923 L91.9957945,52.0576923 L91.9957945,41.9775641 Z M106.181307,47.0897436 C106.181307,46.3952957 106.03782,45.8985058 105.75084,45.599359 C105.463859,45.3002122 105.046682,45.150641 104.499294,45.150641 C103.951906,45.150641 103.510814,45.2601485 103.176004,45.4791667 C102.841193,45.6981849 102.673791,46.0427327 102.673791,46.5128205 L101.286728,46.5128205 C101.286728,45.337601 101.913823,44.6111125 103.168032,44.3333333 C103.550672,44.2478628 103.965193,44.2051282 104.411606,44.2051282 C105.357577,44.2051282 106.096274,44.4455104 106.627719,44.9262821 C107.159163,45.4070537 107.424882,46.138884 107.424882,47.1217949 L107.424882,52.0576923 L106.34074,52.0576923 L106.213194,50.775641 C105.745523,51.7478681 104.900539,52.2339744 103.678216,52.2339744 C102.859791,52.2339744 102.203467,52.0042758 101.709224,51.5448718 C101.21498,51.0854678 100.967862,50.5138923 100.967862,49.8301282 C100.967862,49.1463641 101.241552,48.6121814 101.78894,48.2275641 C102.336328,47.8429468 103.019224,47.650641 103.837649,47.650641 C104.656073,47.650641 105.437285,47.7895285 106.181307,48.0673077 L106.181307,47.0897436 Z M106.181307,48.8685897 C105.426656,48.6549135 104.767675,48.5480769 104.204344,48.5480769 C103.641012,48.5480769 103.183977,48.6495716 102.833223,48.8525641 C102.48247,49.0555566 102.307096,49.3760662 102.307096,49.8141026 C102.307096,50.7756458 102.849161,51.2564103 103.933308,51.2564103 C104.549784,51.2564103 105.078563,51.0347244 105.519662,50.5913462 C105.960761,50.1479679 106.181307,49.5737215 106.181307,48.8685897 Z M112.291561,44.7660256 C112.82832,44.3920921 113.553731,44.2051282 114.467815,44.2051282 C115.3819,44.2051282 116.096682,44.397434 116.612183,44.7820513 C117.127685,45.1666686 117.39606,45.6527748 117.417318,46.2403846 L116.189687,46.2403846 C116.094027,45.5459367 115.509447,45.1987179 114.435929,45.1987179 C113.915113,45.1987179 113.513879,45.3162381 113.232213,45.5512821 C112.950547,45.786326 112.809717,46.0400627 112.809717,46.3125 C112.809717,46.5849373 112.916004,46.8146358 113.128582,47.0016026 C113.34116,47.1885693 113.681279,47.351495 114.14895,47.4903846 L115.679503,48.0032051 C116.327865,48.2061976 116.824758,48.4652762 117.170197,48.7804487 C117.515636,49.0956212 117.688353,49.5283092 117.688353,50.0785256 C117.688353,50.6287421 117.406692,51.125532 116.843361,51.5689103 C116.280029,52.0122885 115.493503,52.2339744 114.483759,52.2339744 C113.474014,52.2339744 112.687488,52.0069467 112.124157,51.5528846 C111.560825,51.0988225 111.263221,50.5138925 111.231334,49.7980769 L112.443022,49.7980769 C112.464279,50.2788486 112.658254,50.6394219 113.024951,50.8798077 C113.391647,51.1201935 113.85134,51.2403846 114.404042,51.2403846 C114.956745,51.2403846 115.41378,51.1228644 115.775162,50.8878205 C116.136545,50.6527766 116.317233,50.3723307 116.317233,50.0464744 C116.317233,49.720618 116.210946,49.4722231 115.998368,49.3012821 C115.78579,49.130341 115.440356,48.9807699 114.962056,48.8525641 L113.479333,48.3557692 C112.150722,47.9604681 111.486426,47.2660306 111.486426,46.2724359 C111.486426,45.6420909 111.754802,45.1399591 112.291561,44.7660256 Z M123.025359,45.8076923 C123.535545,44.7393109 124.38053,44.2051282 125.560336,44.2051282 C126.463792,44.2051282 127.167946,44.5042705 127.672818,45.1025641 C128.17769,45.7008577 128.430123,46.5181572 128.430123,47.5544872 L128.430123,52.0576923 L127.186549,52.0576923 L127.186549,47.5544872 C127.186549,46.817304 127.013832,46.261754 126.668393,45.8878205 C126.322954,45.513887 125.826061,45.3269231 125.177698,45.3269231 C124.529336,45.3269231 124.008528,45.6020272 123.615259,46.1522436 C123.22199,46.70246 123.025359,47.4636704 123.025359,48.4358974 L123.025359,52.0576923 L121.765841,52.0576923 L121.765841,41.1442308 L123.025359,41.1442308 L123.025359,45.8076923 Z M132.969965,44.3814103 L134.229482,44.3814103 L134.229482,52.0576923 L132.969965,52.0576923 L132.969965,44.3814103 Z M132.99388,42.3701923 C132.85039,42.2259608 132.778646,42.033655 132.778646,41.7932692 C132.778646,41.5528834 132.85039,41.3605776 132.99388,41.2163462 C133.13737,41.0721147 133.336659,41 133.591752,41 C133.846846,41 134.051449,41.0721147 134.205568,41.2163462 C134.359687,41.3605776 134.436745,41.5528834 134.436745,41.7932692 C134.436745,42.033655 134.359687,42.2259608 134.205568,42.3701923 C134.051449,42.5144238 133.846846,42.5865385 133.591752,42.5865385 C133.336659,42.5865385 133.13737,42.5144238 132.99388,42.3701923 Z M141.894203,44.2051282 C142.957092,44.2051282 143.815363,44.552347 144.469039,45.2467949 C145.122716,45.9412428 145.44955,46.9348226 145.44955,48.2275641 C145.44955,49.5096218 145.122716,50.4978598 144.469039,51.1923077 C143.815363,51.8867556 142.957092,52.2339744 141.894203,52.2339744 C140.831314,52.2339744 139.973044,51.8867556 139.319367,51.1923077 C138.66569,50.4978598 138.338857,49.5096218 138.338857,48.2275641 C138.338857,46.9348226 138.66569,45.9412428 139.319367,45.2467949 C139.973044,44.552347 140.831314,44.2051282 141.894203,44.2051282 Z M143.600132,46.0721154 C143.217492,45.5539504 142.656826,45.2948718 141.918118,45.2948718 C141.17941,45.2948718 140.61343,45.5539504 140.220161,46.0721154 C139.826892,46.5902804 139.630261,47.3060852 139.630261,48.2195513 C139.630261,49.1330174 139.816264,49.8488222 140.188275,50.3669872 C140.560286,50.8851522 141.115637,51.1442308 141.854345,51.1442308 C142.593053,51.1442308 143.164347,50.8851522 143.568245,50.3669872 C143.972143,49.8488222 144.174089,49.1330174 144.174089,48.2195513 C144.174089,47.3060852 143.982772,46.5902804 143.600132,46.0721154 Z M150.563349,45.8717949 C151.062907,44.7606782 151.91852,44.2051282 153.130214,44.2051282 C154.033669,44.2051282 154.737823,44.5042705 155.242695,45.1025641 C155.747568,45.7008577 156,46.5181572 156,47.5544872 L156,52.0576923 L154.756426,52.0576923 L154.756426,47.5544872 C154.756426,46.817304 154.583709,46.261754 154.23827,45.8878205 C153.892831,45.513887 153.401252,45.3269231 152.763519,45.3269231 C152.125785,45.3269231 151.610292,45.5886726 151.217023,46.1121795 C150.823754,46.6356864 150.616494,47.3621748 150.595236,48.2916667 L150.595236,52.0576923 L149.335719,52.0576923 L149.335719,44.3974359 L150.41986,44.3974359 L150.563349,45.8717949 Z" id="Luxury-Fashion" fill="#E2C79B"></path>
                </g>
            </g>
        </g>
    </g>
</svg>