<?xml version="1.0" encoding="UTF-8"?>
<svg width="20px" height="20px" viewBox="0 0 20 20" version="1.1" xmlns="http://www.w3.org/2000/svg" xmlns:xlink="http://www.w3.org/1999/xlink">
    <!-- Generator: Sketch 42 (36781) - http://www.bohemiancoding.com/sketch -->
    <title>Icon Search</title>
    <desc>Created with Sketch.</desc>
    <defs></defs>
    <g id="Web" stroke="none" stroke-width="1" fill="none" fill-rule="evenodd">
        <g id="Home" transform="translate(-1392.000000, -60.000000)" fill="#E2C79B">
            <g id="Icon-Search" transform="translate(1392.000000, 60.000000)">
                <path d="M19.8270126,18.9800443 L14.9656243,14.1197339 C16.2696829,12.6208426 17.0592149,10.6651885 17.0592149,8.52771619 C17.0592149,3.82261641 13.2313151,0 8.52960745,0 C3.82346418,0 0,3.827051 0,8.52771619 C0,13.2283814 3.82789976,17.0554324 8.52960745,17.0554324 C10.6675538,17.0554324 12.6236416,16.2660754 14.1228654,14.962306 L18.9842537,19.8226164 C19.0995786,19.9379157 19.2548237,20 19.4056332,20 C19.5564427,20 19.7116877,19.9423503 19.8270126,19.8226164 C20.0576625,19.5920177 20.0576625,19.210643 19.8270126,18.9800443 Z M1.19316922,8.52771619 C1.19316922,4.48337029 4.4843646,1.19733925 8.52517188,1.19733925 C12.5704147,1.19733925 15.8571745,4.48780488 15.8571745,8.52771619 C15.8571745,12.5676275 12.5704147,15.8625277 8.52517188,15.8625277 C4.4843646,15.8625277 1.19316922,12.5720621 1.19316922,8.52771619 Z" id="Search"></path>
            </g>
        </g>
    </g>
</svg>