<?xml version="1.0" encoding="UTF-8"?>
<svg width="20px" height="21px" viewBox="0 0 20 21" version="1.1" xmlns="http://www.w3.org/2000/svg" xmlns:xlink="http://www.w3.org/1999/xlink">
    <!-- Generator: Sketch 42 (36781) - http://www.bohemiancoding.com/sketch -->
    <title>social-gplus</title>
    <desc>Created with Sketch.</desc>
    <defs></defs>
    <g id="Web" stroke="none" stroke-width="1" fill="none" fill-rule="evenodd" opacity="0.100000001">
        <g id="Product" transform="translate(-1080.000000, -1029.000000)" fill="#FFFFFF">
            <g id="Details" transform="translate(900.000000, 271.000000)">
                <g id="Social" transform="translate(0.000000, 758.000000)">
                    <path d="M190,20.1103982 C195.522847,20.1103982 200,15.6332457 200,10.1103982 C200,4.58755073 195.522847,0.11039823 190,0.11039823 C184.477153,0.11039823 180,4.58755073 180,10.1103982 C180,15.6332457 184.477153,20.1103982 190,20.1103982 Z M183.481586,10.5580078 C183.446112,12.2785682 184.631181,13.9205162 186.261364,14.4560077 C187.796891,14.9718906 189.684837,14.5859589 190.706621,13.2709387 C191.452636,12.3495155 191.622161,11.1211295 191.54141,9.97349495 C190.22639,9.96172983 188.911369,9.96565154 187.59831,9.96761239 C187.596171,10.4360783 187.59831,10.9027616 187.600271,11.3712275 C188.387643,11.3929751 189.175193,11.3829926 189.962566,11.3988577 C189.763806,12.0799872 189.311027,12.7138779 188.623837,12.9598759 C187.297052,13.544567 185.604121,12.7807252 185.186638,11.3888752 C184.682698,10.0560291 185.507683,8.44759385 186.869764,8.0598795 C187.714357,7.76272095 188.584442,8.09731398 189.307105,8.53636707 C189.67325,8.19375236 190.015865,7.8276074 190.352419,7.45754073 C189.531356,6.77052872 188.476238,6.34930158 187.391529,6.44181825 C185.263289,6.46713109 183.400834,8.43190702 183.481586,10.5580078 Z M194.100681,8.78610859 C194.096759,9.17792292 194.092659,9.5716981 194.090698,9.96333416 C193.696923,9.96725587 193.305287,9.96921673 192.913473,9.97117758 L192.913473,11.1444814 C193.305287,11.1464423 193.699062,11.1484032 194.090698,11.1525031 C194.09462,11.5443174 194.09462,11.9359535 194.098542,12.3297287 C194.488395,12.3297287 194.88021,12.3277678 195.271846,12.3297287 C195.273985,11.9359535 195.275767,11.5443174 195.279867,11.1505423 C195.671503,11.1485814 196.065279,11.1466206 196.457093,11.1446597 L196.457093,9.97135584 C196.065457,9.96939499 195.671682,9.96743413 195.279867,9.96351242 C195.277728,9.5716981 195.273985,9.17792292 195.271846,8.78628685 C194.88021,8.78610859 194.490356,8.78610859 194.100681,8.78610859 Z" id="social-gplus"></path>
                </g>
            </g>
        </g>
    </g>
</svg>