<?xml version="1.0" encoding="UTF-8"?>
<svg width="20px" height="20px" viewBox="0 0 20 20" version="1.1" xmlns="http://www.w3.org/2000/svg" xmlns:xlink="http://www.w3.org/1999/xlink">
    <!-- Generator: Sketch 42 (36781) - http://www.bohemiancoding.com/sketch -->
    <title>social-pinterest</title>
    <desc>Created with Sketch.</desc>
    <defs></defs>
    <g id="Web" stroke="none" stroke-width="1" fill="none" fill-rule="evenodd" opacity="0.100000001">
        <g id="Product" transform="translate(-1020.000000, -1029.000000)" fill="#FFFFFF">
            <g id="Details" transform="translate(900.000000, 271.000000)">
                <g id="Social" transform="translate(0.000000, 758.000000)">
                    <path d="M130,0 C124.477157,0 120,4.4771569 120,10 C120,15.5228056 124.477044,19.9999625 130,19.9999625 C135.522806,19.9999625 140,15.5228056 140,10 C139.999963,4.4771569 135.522806,0 130,0 Z M130.969599,13.3616458 C130.061012,13.2910709 129.679713,12.8410339 128.967551,12.4083595 C128.575752,14.4626444 128.097177,16.4321795 126.679679,17.4608782 C126.242092,14.3560696 127.322128,12.0240975 127.823615,9.54850056 C126.968466,8.10891486 127.926515,5.21189349 129.730263,5.92596759 C131.94951,6.8038415 127.80839,11.2776609 130.588299,11.8364477 C133.491021,12.419797 134.675944,6.800129 132.876209,4.97264378 C130.275437,2.33388458 125.305943,4.91249386 125.917043,8.69053914 C126.065767,9.61420048 127.019991,9.89440013 126.298342,11.1690985 C124.633907,10.8001365 124.13722,9.48741314 124.201157,7.73721533 C124.304057,4.87248141 126.775079,2.86683392 129.253638,2.58944676 C132.388035,2.2385972 135.329943,3.73998283 135.736143,6.68860414 C136.193455,10.0165 134.321195,13.6208455 130.969599,13.3616458 Z" id="social-pinterest"></path>
                </g>
            </g>
        </g>
    </g>
</svg>